# xmcd
#
# Track frame offsets:
#	150
#	16805
#	27522
#	43100
#	53102
#	73850
#	84795
#	98952
#	114915
#	130932
#	146365
#	161467
#
# Disc length: 2386 seconds
# Revision: 0
# Processed by: cddbd v1.5.2PL0 Copyright (c) Steve Scherf et al.
# Submitted via: dBpowerAMP V12.0
#
DISCID=9609500c
DTITLE=Donella Plane - Working Man
DYEAR=2015
DGENRE=Country
TTITLE0=Working Man
TTITLE1=Walking After Midnight
TTITLE2=In Anothers Eyes
TTITLE3=On The Road Again
TTITLE4=From This Moment On
TTITLE5=Lets Don't But Say We Did
TTITLE6=Perhaps Love
TTITLE7=I Don't Know Much
TTITLE8=Me Without You
TTITLE9=We're Got Tonight
TTITLE10=Could I Have This Dance
TTITLE11=You Know Thats it's True
EXTD=
EXTT0=
EXTT1=
EXTT2=
EXTT3=
EXTT4=
EXTT5=
EXTT6=
EXTT7=
EXTT8=
EXTT9=
EXTT10=
EXTT11=
PLAYORDER=
